<svg width="41" height="34" viewBox="0 0 41 34" fill="none" xmlns="http://www.w3.org/2000/svg">
<g clip-path="url(#clip0_19_27)">
<path d="M16.132 22.295L15.442 31.605C15.7982 31.6101 16.1508 31.5323 16.4718 31.3779C16.7928 31.2234 17.0736 30.9965 17.292 30.715L21.732 26.465L30.932 33.205C32.612 34.145 33.802 33.655 34.262 31.655L40.262 3.36501C40.792 0.875007 39.352 -0.104994 37.712 0.505006L2.23198 14.095C-0.188023 15.035 -0.158011 16.385 1.82199 16.995L10.892 19.815L31.962 6.63501C32.962 5.97501 33.852 6.33501 33.112 6.99501L16.132 22.295Z" fill="#33333C"/>
</g>
<defs>
<clipPath id="clip0_19_27">
<rect width="40" height="33.33" fill="white" transform="translate(0.432007 0.334991)"/>
</clipPath>
</defs>
</svg>
