<svg width="41" height="40" viewBox="0 0 41 40" fill="none" xmlns="http://www.w3.org/2000/svg">
<path d="M40.4121 31.5904C40.4567 31.8987 40.4263 32.2133 40.3236 32.5075C40.2209 32.8016 40.0489 33.0668 39.8221 33.2804L34.1921 38.8704C33.9091 39.1735 33.5693 39.4181 33.1921 39.5904C32.809 39.7742 32.4015 39.9021 31.9821 39.9704H31.7321H31.1821C30.3099 39.9387 29.441 39.8452 28.5821 39.6904C27.0671 39.4165 25.59 38.9633 24.1821 38.3404C22.1222 37.4434 20.1475 36.3623 18.282 35.1104C15.7509 33.3798 13.4051 31.3926 11.282 29.1804C9.50141 27.4551 7.86281 25.589 6.38208 23.6004C5.21902 22.0362 4.17284 20.3884 3.25208 18.6704C2.54645 17.3552 1.95105 15.9839 1.47205 14.5704C1.12794 13.5348 0.860558 12.4752 0.672061 11.4004C0.544997 10.7079 0.488059 10.0043 0.502078 9.30036C0.502078 8.80036 0.502078 8.51036 0.502078 8.46036C0.565691 8.03987 0.693873 7.63173 0.882083 7.25037C1.05436 6.87315 1.29895 6.5334 1.60205 6.25037L7.23206 0.620365C7.40504 0.435266 7.61399 0.287464 7.84613 0.186008C8.07828 0.0845532 8.32875 0.0315883 8.5821 0.0303687C8.94227 0.0191116 9.29536 0.132107 9.5821 0.350376C9.86655 0.565511 10.1103 0.829644 10.3021 1.13037L14.8321 9.72037C15.0822 10.1709 15.1569 10.698 15.0421 11.2004C14.9417 11.712 14.6911 12.182 14.3221 12.5504L12.2521 14.6204C12.18 14.7001 12.1285 14.7962 12.1021 14.9004C12.0658 14.9999 12.0455 15.1045 12.0421 15.2104C12.1974 15.9102 12.4534 16.5839 12.8021 17.2104C13.2596 18.0715 13.781 18.8972 14.3621 19.6804C15.2705 20.8788 16.2738 22.0025 17.3621 23.0404C18.4032 24.1328 19.5338 25.1363 20.7421 26.0404C21.5253 26.6272 22.3509 27.1553 23.212 27.6204C23.6941 27.8903 24.2081 28.0985 24.7421 28.2404L25.2721 28.3404C25.3642 28.3317 25.4549 28.3115 25.5421 28.2804C25.6462 28.2539 25.7424 28.2024 25.8221 28.1304L28.2321 25.6804C28.7144 25.2372 29.3472 24.9942 30.0021 25.0004C30.3977 24.9791 30.7917 25.0655 31.1421 25.2504H31.1921L39.3521 30.0804C39.6178 30.2229 39.8499 30.4207 40.0328 30.6604C40.2156 30.9002 40.3449 31.1764 40.4121 31.4704V31.5904Z" fill="#33333C"/>
</svg>
