<svg width="41" height="40" viewBox="0 0 41 40" fill="none" xmlns="http://www.w3.org/2000/svg">
<g clip-path="url(#clip0_19_17)">
<path d="M28.8125 40H12.0515C5.64451 40 0.432007 34.7875 0.432007 28.3805V11.6195C0.432007 5.2125 5.64451 0 12.0515 0H28.8125C35.2195 0 40.432 5.2125 40.432 11.6195V28.3805C40.432 34.7875 35.2195 40 28.8125 40ZM12.0515 3.125C9.79947 3.12769 7.64042 4.02351 6.04797 5.61596C4.45551 7.20841 3.55969 9.36747 3.55701 11.6195V28.3805C3.55949 30.6326 4.45524 32.7918 6.04774 34.3843C7.64023 35.9768 9.79941 36.8725 12.0515 36.875H28.8125C31.0646 36.8725 33.2238 35.9768 34.8163 34.3843C36.4088 32.7918 37.3045 30.6326 37.307 28.3805V11.6195C37.3045 9.3674 36.4088 7.20823 34.8163 5.61573C33.2238 4.02324 31.0646 3.12748 28.8125 3.125H12.0515Z" fill="#33333C"/>
<path d="M20.432 30.7812C14.4875 30.7812 9.65076 25.9445 9.65076 20C9.65076 14.0555 14.4875 9.21875 20.432 9.21875C26.3765 9.21875 31.2133 14.0555 31.2133 20C31.2133 25.9445 26.3765 30.7812 20.432 30.7812ZM20.432 12.3438C18.9177 12.3437 17.4375 12.7928 16.1784 13.6341C14.9194 14.4753 13.938 15.6711 13.3586 17.0701C12.7791 18.4691 12.6275 20.0085 12.9229 21.4937C13.2183 22.9788 13.9475 24.343 15.0182 25.4138C16.089 26.4845 17.4532 27.2137 18.9383 27.5091C20.4235 27.8046 21.9629 27.6529 23.3619 27.0735C24.7609 26.494 25.9567 25.5126 26.7979 24.2536C27.6392 22.9945 28.0883 21.5143 28.0883 20C28.086 17.9701 27.2786 16.0241 25.8433 14.5887C24.4079 13.1534 22.4619 12.346 20.432 12.3438V12.3438Z" fill="#33333C"/>
<path d="M31.3695 10.625C32.2325 10.625 32.932 9.92544 32.932 9.0625C32.932 8.19956 32.2325 7.5 31.3695 7.5C30.5066 7.5 29.807 8.19956 29.807 9.0625C29.807 9.92544 30.5066 10.625 31.3695 10.625Z" fill="#33333C"/>
</g>
<defs>
<clipPath id="clip0_19_17">
<rect width="40" height="40" fill="white" transform="translate(0.432007)"/>
</clipPath>
</defs>
</svg>
