<svg width="41" height="30" viewBox="0 0 41 30" fill="none" xmlns="http://www.w3.org/2000/svg">
<g clip-path="url(#clip0_19_29)">
<path d="M40.362 3.62C40.362 3.57 40.362 3.52998 40.362 3.47998L28.152 15.24L40.342 26.63C40.3468 26.5467 40.3468 26.4633 40.342 26.38L40.362 3.62Z" fill="#33333C"/>
<path d="M26.3621 17.05L21.3621 21.85C21.1155 22.0813 20.7901 22.21 20.4521 22.21C20.1211 22.2137 19.8018 22.0882 19.5621 21.86L14.5621 17.23L2.36206 29.06C2.68086 29.1843 3.01987 29.2488 3.36206 29.25H37.712C38.1939 29.2438 38.6658 29.1128 39.082 28.87L26.3621 17.05Z" fill="#33333C"/>
<path d="M20.462 19.11L39.092 1.16998C38.6576 0.905246 38.1607 0.760348 37.652 0.75H3.30206C2.63963 0.758507 2.00038 0.995118 1.49207 1.41998L20.462 19.11Z" fill="#33333C"/>
<path d="M0.432007 4.04999V26.4C0.440266 26.6508 0.480588 26.8994 0.552002 27.14L12.672 15.47L0.432007 4.04999Z" fill="#33333C"/>
</g>
<defs>
<clipPath id="clip0_19_29">
<rect width="40" height="28.5" fill="white" transform="translate(0.432007 0.75)"/>
</clipPath>
</defs>
</svg>
