<svg width="40" height="40" viewBox="0 0 40 40" fill="none" xmlns="http://www.w3.org/2000/svg">
<mask id="mask0_32_242" style="mask-type:alpha" maskUnits="userSpaceOnUse" x="0" y="0" width="40" height="40">
<rect width="40" height="40" fill="#C4C4C4"/>
</mask>
<g mask="url(#mask0_32_242)">
<path d="M29.125 22.292V7.08301H31.25V20.208L29.125 22.292ZM7.91699 33.125V7.08301H9.99999V33.125H7.91699ZM18.542 13.042V7.08301H20.625V13.042H18.542ZM18.542 23.083V17.125H20.625V23.083H18.542ZM18.542 33.125V27.167H20.625V33.125H18.542ZM36.292 23.875L34 21.583L35 20.583C35.222 20.361 35.4927 20.236 35.812 20.208C36.132 20.1807 36.403 20.278 36.625 20.5L37.375 21.25C37.597 21.472 37.6943 21.7427 37.667 22.062C37.639 22.382 37.514 22.653 37.292 22.875L36.292 23.875ZM24.75 33.125V30.792L32.958 22.583L35.25 24.875L27.042 33.125H24.75Z" fill="#33333C"/>
</g>
</svg>
