<svg width="40" height="40" viewBox="0 0 40 40" fill="none" xmlns="http://www.w3.org/2000/svg">
<mask id="mask0_32_278" style="mask-type:alpha" maskUnits="userSpaceOnUse" x="0" y="0" width="40" height="40">
<rect width="40" height="40" fill="#C4C4C4"/>
</mask>
<g mask="url(#mask0_32_278)">
<path d="M20.458 19.333C21.1247 18.5557 21.611 17.7153 21.917 16.812C22.2223 15.9093 22.375 14.9163 22.375 13.833C22.375 12.7497 22.2223 11.7567 21.917 10.854C21.611 9.95134 21.1247 9.12501 20.458 8.37501C22.1527 8.18034 23.5973 8.60401 24.792 9.64601C25.986 10.6873 26.583 12.083 26.583 13.833C26.583 15.611 25.986 17.014 24.792 18.042C23.5973 19.0693 22.1527 19.4997 20.458 19.333ZM29.125 32.167V28.792C29.125 27.6807 28.875 26.639 28.375 25.667C27.875 24.6943 27.0277 23.8747 25.833 23.208C28.7777 23.6807 30.9167 24.3753 32.25 25.292C33.5833 26.2087 34.25 27.3753 34.25 28.792V32.167H29.125ZM32.75 21.083V17.333H29V15.25H32.75V11.5H34.833V15.25H38.583V17.333H34.833V21.083H32.75ZM13.792 19.458C12.2087 19.458 10.8753 18.9233 9.79199 17.854C8.70866 16.7847 8.16699 15.4443 8.16699 13.833C8.16699 12.2223 8.70866 10.8823 9.79199 9.81301C10.8753 8.74301 12.2087 8.20801 13.792 8.20801C15.4027 8.20801 16.7497 8.74301 17.833 9.81301C18.9163 10.8823 19.458 12.2223 19.458 13.833C19.458 15.4443 18.9163 16.7847 17.833 17.854C16.7497 18.9233 15.4027 19.458 13.792 19.458ZM1.41699 32.167V28.833C1.41699 27.9997 1.64599 27.236 2.10399 26.542C2.56266 25.8473 3.16699 25.3193 3.91699 24.958C5.72233 24.1527 7.40966 23.5557 8.97899 23.167C10.5483 22.7777 12.1527 22.583 13.792 22.583C15.4587 22.583 17.0767 22.7777 18.646 23.167C20.2153 23.5557 21.889 24.1527 23.667 24.958C24.4443 25.3193 25.0623 25.8473 25.521 26.542C25.979 27.236 26.208 27.9997 26.208 28.833V32.167H1.41699ZM13.833 17.375C14.833 17.375 15.6663 17.0347 16.333 16.354C16.9997 15.6733 17.333 14.833 17.333 13.833C17.333 12.833 16.9997 11.993 16.333 11.313C15.6663 10.6323 14.8193 10.292 13.792 10.292C12.792 10.292 11.9587 10.6323 11.292 11.313C10.6253 11.993 10.292 12.833 10.292 13.833C10.292 14.833 10.6253 15.6733 11.292 16.354C11.9587 17.0347 12.8057 17.375 13.833 17.375ZM3.49999 30.083H24.125V28.833C24.125 28.4443 24.007 28.0693 23.771 27.708C23.535 27.3473 23.1947 27.0557 22.75 26.833C21.1113 26.0557 19.5973 25.5003 18.208 25.167C16.8193 24.8337 15.3473 24.667 13.792 24.667C12.264 24.667 10.8057 24.8337 9.41699 25.167C8.02766 25.5003 6.49966 26.0557 4.83299 26.833C4.41633 27.0557 4.08999 27.3473 3.85399 27.708C3.61799 28.0693 3.49999 28.4443 3.49999 28.833V30.083Z" fill="#33333C"/>
</g>
</svg>
