<svg width="40" height="40" viewBox="0 0 40 40" fill="none" xmlns="http://www.w3.org/2000/svg">
<mask id="mask0_32_282" style="mask-type:alpha" maskUnits="userSpaceOnUse" x="0" y="0" width="40" height="40">
<rect width="40" height="40" fill="#C4C4C4"/>
</mask>
<g mask="url(#mask0_32_282)">
<path d="M21.9581 8.625C21.1528 8.625 20.4655 8.33333 19.8961 7.75C19.3268 7.16667 19.0421 6.486 19.0421 5.708C19.0421 4.90267 19.3268 4.20833 19.8961 3.625C20.4655 3.04167 21.1528 2.75 21.9581 2.75C22.7915 2.75 23.4928 3.04167 24.0621 3.625C24.6321 4.20833 24.9171 4.90267 24.9171 5.708C24.9171 6.486 24.6321 7.16667 24.0621 7.75C23.4928 8.33333 22.7915 8.625 21.9581 8.625ZM11.9171 37.917L16.8751 12.375C16.9865 11.7637 17.2781 11.2913 17.7501 10.958C18.2221 10.6247 18.7081 10.458 19.2081 10.458C19.7361 10.458 20.2295 10.5763 20.6881 10.813C21.1461 11.049 21.5141 11.389 21.7921 11.833L23.4581 14.5C23.9861 15.3887 24.7431 16.2013 25.7291 16.938C26.7151 17.674 27.8888 18.2363 29.2501 18.625V15.458H30.8331V37.917H29.2501V20.75C27.8335 20.4447 26.4725 19.889 25.1671 19.083C23.8611 18.2777 22.6805 17.236 21.6251 15.958L20.2921 22.542L23.8751 25.917V37.917H21.7501V27.917L17.2081 24L14.1671 37.917H11.9171ZM12.2501 21.208L14.2501 11.042L12.9581 10.75C12.2361 10.6113 11.5628 10.7503 10.9381 11.167C10.3128 11.5837 9.93079 12.167 9.79212 12.917L8.54212 19.458C8.48612 19.708 8.54146 19.958 8.70812 20.208C8.87479 20.458 9.08312 20.611 9.33312 20.667L12.2501 21.208Z" fill="#33333C"/>
</g>
</svg>
