<svg width="40" height="40" viewBox="0 0 40 40" fill="none" xmlns="http://www.w3.org/2000/svg">
<mask id="mask0_32_266" style="mask-type:alpha" maskUnits="userSpaceOnUse" x="0" y="0" width="40" height="40">
<rect width="40" height="40" fill="#C4C4C4"/>
</mask>
<g mask="url(#mask0_32_266)">
<path d="M28.5 36.25V22.917H24.083V11.167C24.083 9.139 24.6803 7.43067 25.875 6.042C27.0697 4.65267 28.653 3.90267 30.625 3.792V36.25H28.5ZM12.208 36.25V21.042C10.8193 20.792 9.65266 20.132 8.70799 19.062C7.76399 17.9927 7.29199 16.708 7.29199 15.208V3.75H9.37499V15.208H12.208V3.75H14.292V15.208H17.083V3.75H19.208V15.208C19.208 16.708 18.729 17.9927 17.771 19.062C16.8123 20.132 15.6527 20.792 14.292 21.042V36.25H12.208Z" fill="#33333C"/>
</g>
</svg>
