<svg width="40" height="40" viewBox="0 0 40 40" fill="none" xmlns="http://www.w3.org/2000/svg">
<mask id="mask0_32_254" style="mask-type:alpha" maskUnits="userSpaceOnUse" x="0" y="0" width="40" height="40">
<rect width="40" height="40" fill="#C4C4C4"/>
</mask>
<g mask="url(#mask0_32_254)">
<path d="M15.333 4.16701V2.08301H24.667V4.16701H15.333ZM18.958 22.75H21.042V13.583H18.958V22.75ZM20 35.833C18.0553 35.833 16.222 35.458 14.5 34.708C12.778 33.958 11.278 32.9373 10 31.646C8.72201 30.354 7.70801 28.847 6.95801 27.125C6.20801 25.403 5.83301 23.5697 5.83301 21.625C5.83301 19.6803 6.20801 17.854 6.95801 16.146C7.70801 14.4373 8.72201 12.9373 10 11.646C11.278 10.354 12.778 9.34001 14.5 8.60401C16.222 7.86801 18.0553 7.50001 20 7.50001C21.75 7.50001 23.4097 7.79867 24.979 8.39601C26.5483 8.99334 27.972 9.83367 29.25 10.917L31.208 8.91701L32.667 10.417L30.708 12.375C31.736 13.5697 32.5693 14.9377 33.208 16.479C33.8473 18.021 34.167 19.7503 34.167 21.667C34.167 23.5837 33.792 25.403 33.042 27.125C32.292 28.847 31.278 30.354 30 31.646C28.722 32.9373 27.222 33.958 25.5 34.708C23.778 35.458 21.9447 35.833 20 35.833ZM20 33.708C23.3333 33.708 26.1807 32.5347 28.542 30.188C30.9027 27.8407 32.083 25.0003 32.083 21.667C32.083 18.3057 30.9093 15.4513 28.562 13.104C26.2153 10.7567 23.3613 9.58301 20 9.58301C16.6667 9.58301 13.8193 10.7567 11.458 13.104C9.09734 15.4513 7.91701 18.3057 7.91701 21.667C7.91701 25.0003 9.09067 27.8407 11.438 30.188C13.7847 32.5347 16.6387 33.708 20 33.708Z" fill="#33333C"/>
</g>
</svg>
