<?xml version="1.0" encoding="utf-8"?>
<!-- Generator: Adobe Illustrator 26.0.3, SVG Export Plug-In . SVG Version: 6.00 Build 0)  -->
<svg version="1.1" id="Слой_1" xmlns="http://www.w3.org/2000/svg" xmlns:xlink="http://www.w3.org/1999/xlink" x="0px" y="0px"
	 viewBox="0 0 71 60" style="enable-background:new 0 0 71 60;" xml:space="preserve">
<style type="text/css">
	.st0{fill:#FFFFFF;}
</style>
<path class="st0" d="M42.4,28.3c-0.7-16.4-15.7-30.5-32.4-28v0c15.5,2.1,25.8,14.5,26.7,27.9L5.4,28.4l12.8-12.8l-2-2L2,27.8l0,0
	l-2,2L16.2,46l2-2L5.5,31.3l31.3,0.2c-0.3,6.1-2.6,12.3-7.4,17.7c-5,5.6-11.9,9.2-19.3,10.2c4,0.6,8,0.2,11.8-1
	c11.6-3.5,19.9-14.9,20.5-26.9l28,0.1v-3.5L42.4,28.3z"/>
</svg>
