<svg xmlns="http://www.w3.org/2000/svg" viewBox="0 0 640 360"><defs><style>.cls-1{fill:none;}.cls-2,.cls-4,.cls-5,.cls-6,.cls-7{fill:#33333c;}.cls-10,.cls-11,.cls-3,.cls-8,.cls-9{fill:#9999a0;}.cls-10,.cls-11,.cls-4,.cls-5,.cls-6,.cls-7,.cls-8,.cls-9{font-size:65.58px;font-family:NotoSerifDisplay-Bold, Noto Serif Display;font-weight:700;}.cls-4,.cls-8{letter-spacing:-0.15em;}.cls-5,.cls-9{letter-spacing:-0.16em;}.cls-10,.cls-6{letter-spacing:-0.13em;}.cls-12{font-size:19.29px;fill:#cccbcb;font-family:Montserrat-SemiBold, Montserrat;font-weight:600;letter-spacing:0.03em;}.cls-13{letter-spacing:0.03em;}.cls-14{letter-spacing:0em;}</style></defs><g id="Слой_2" data-name="Слой 2"><g id="Слой_2-2" data-name="Слой 2"><rect class="cls-1" width="640" height="360"/><circle class="cls-2" cx="320" cy="185.98" r="110.44"/><polygon class="cls-3" points="211.65 210.72 218.71 195.95 225.09 182.6 229.98 177.02 236.85 169.17 240.1 160.92 243.21 149.55 249.05 138.14 252.59 129.13 257.04 120.12 261.46 111.19 266.03 101.93 270.17 97.53 271.84 95.58 276.9 90.25 280.42 88.91 286.13 95.76 290.61 102.92 299.08 111.3 302.95 119.99 314.43 109.52 328.45 107.63 336.82 98.83 350.59 86.13 354.46 90.28 359.27 92.38 364.7 95.39 366.86 100.2 372.2 105.65 373.69 112.75 380.78 123.54 378.16 128.63 389.35 137.09 401.77 144.53 406.81 151.87 416.78 159.41 420.36 167.1 407.1 169.64 424.76 177.88 428.35 184.96 374.1 192.01 320.15 196.3 266.21 202.44 211.65 210.72"/><text class="cls-4" transform="translate(239.44 191.48) scale(1.41)">A</text><text class="cls-5" transform="translate(295.49 186.77)">Č</text><text class="cls-6" transform="translate(323.75 166.91) scale(1.15 1.13)">Ï</text><text class="cls-7" transform="translate(344.28 199.85)">G</text><text class="cls-8" transform="translate(245.29 188.41) scale(1.41)">A</text><text class="cls-9" transform="translate(301.33 183.7)">Č</text><text class="cls-10" transform="translate(329.6 163.84) scale(1.15 1.13)">Ï</text><text class="cls-11" transform="translate(350.12 196.78)">G</text><text class="cls-12" transform="matrix(0.95, -0.11, 0.01, 1, 245.76, 247.13)">МАГИЯ <tspan class="cls-13" x="83.64" y="0">А</tspan><tspan x="99.31" y="0">Л</tspan><tspan class="cls-14" x="115.22" y="0">ТА</tspan><tspan x="141.99" y="0">Я</tspan></text></g></g></svg>